<mxfile host="app.diagrams.net" agent="Mozilla/5.0 (Windows NT 10.0; Win64; x64) AppleWebKit/537.36 (KHTML, like Gecko) Chrome/137.0.0.0 Safari/537.36" version="27.0.3">
  <diagram name="PÃ¡gina-1" id="YO7Dw-zW5bNeekoChtEh">
    <mxGraphModel dx="1213" dy="730" grid="1" gridSize="10" guides="1" tooltips="1" connect="1" arrows="1" fold="1" page="1" pageScale="1" pageWidth="1169" pageHeight="827" math="0" shadow="0">
      <root>
        <mxCell id="0" />
        <mxCell id="1" parent="0" />
        <mxCell id="fm1w5TPI21riqKRhGV6--1" value="" style="shape=image;html=1;verticalAlign=top;verticalLabelPosition=bottom;labelBackgroundColor=#ffffff;imageAspect=0;aspect=fixed;image=https://cdn3.iconfinder.com/data/icons/2018-social-media-logotypes/1000/2018_social_media_popular_app_logo-whatsapp-128.png" vertex="1" parent="1">
          <mxGeometry x="990" y="320" width="128" height="128" as="geometry" />
        </mxCell>
        <mxCell id="fm1w5TPI21riqKRhGV6--2" value="Log" style="html=1;whiteSpace=wrap;strokeColor=none;fillColor=#0079D6;labelPosition=center;verticalLabelPosition=middle;verticalAlign=top;align=center;fontSize=12;outlineConnect=0;spacingTop=-6;fontColor=#FFFFFF;sketch=0;shape=mxgraph.sitemap.log;" vertex="1" parent="1">
          <mxGeometry x="90" y="610" width="170" height="100" as="geometry" />
        </mxCell>
        <mxCell id="fm1w5TPI21riqKRhGV6--3" value="" style="sketch=0;pointerEvents=1;shadow=0;dashed=0;html=1;strokeColor=none;fillColor=#005F4B;labelPosition=center;verticalLabelPosition=bottom;verticalAlign=top;align=center;outlineConnect=0;shape=mxgraph.veeam2.task_list;" vertex="1" parent="1">
          <mxGeometry x="390" y="580" width="110" height="140" as="geometry" />
        </mxCell>
        <mxCell id="fm1w5TPI21riqKRhGV6--33" style="edgeStyle=orthogonalEdgeStyle;rounded=0;orthogonalLoop=1;jettySize=auto;html=1;" edge="1" parent="1" source="fm1w5TPI21riqKRhGV6--13" target="fm1w5TPI21riqKRhGV6--15">
          <mxGeometry relative="1" as="geometry">
            <Array as="points">
              <mxPoint x="100" y="429" />
            </Array>
          </mxGeometry>
        </mxCell>
        <mxCell id="fm1w5TPI21riqKRhGV6--13" value="" style="shape=image;verticalLabelPosition=bottom;labelBackgroundColor=default;verticalAlign=top;aspect=fixed;imageAspect=0;image=data:image/png,iVBORw0KGgoAAAANSUhEUgAAANoAAABACAYAAAB84Gn+AAAAAXNSR0IArs4c6QAAG1NJREFUeAHtXQt8VMXVP3N3s0kID6UqlfpEIg3al61+olV5SAJY8EV2QxIizwR/LVZqtV8t+kVra2t9aykJT0Mem11UHhZMqI9WpX7qr1U/eSjQYlsRUN6PJPu48/1nw4bN5t67M7ubkMDOj3DvPXPOmcfOmTlzZs4Mo1RI1UBPrYEFuRcSaTmk60OI02BidBqK0gfvWcR4ExE7jPeDxNh2xH2MuM00c9gmYuV6VxeZdXWCqfRSNRB3DSya0If8TTdCaHIhRCOI83OUeTHaT5z9GTxeJXvGcpq+aocyjzgIUoIWR6WlSLq4BhaMGY5RayZSvQnC1St5qTMxsr1CNm0JDb7SSyPKA8nj3Z5TStDa10fqqzvVQGXuD0jnv0CWruz0bDH2TyL+WzrXvpTGrW1JdnqdImj5c+Zk2nfuyfbrgSGMtIGc630YY1nIvI8xfogT7SNm20rpto+9S5fuTHahZPi5XJNzgly/CZXb2wxf09Dj6Xydx1P7FzOcMNzlKrk4yAPFmDNkhmEdn/oB5tDc3urqrR3j2kOczsl5pOnf13WutY85/sWYticr07546dKl+49DT4K3xWOHkj8wD/Or67q8NIxthWo5m2Y1vJzMtJMiaJxz5iwsuZbp+jgIkdCdL8PTJpNRxmgHMvEaZ/SnrAzHiq5oNEVFRX1b/PQphExMni0DOghdI3ZZfX31B2aIovz5ruLPwO9sM5w2OGOfXpqTPai83HxC7nQWjoBO82objdULY2uX19eMs0LpMXG8XKMF6x9A+/kZhCztxOabLSfWbwaVeQ/Ek498j8fmdTqDYdqEBC1/+vT+/FDTnbDqlKByzg8zTeDZwoitJpvtKW9d1ZsJ8LEkdbmKrgxy/ldLpIhIjGy3e9w18yNA7V7zS0q+xpsD/2kHtPjolWE/o6qqao8ZCoT2bmgBj5jFR8LRERz01tf0i4T1yPfqsX3pcKAOee9GnQb7mNId42nqS1tk6hSdp/bRpi2zNBaaR/rQ/56GTnql6KRN1RIrxkI1dBYU/owfat4GvPuSJGQiyXROfCIPBt7IdxatzC8qGmqVj3jjdM2m2sFYjs6OYFCJn9+foYQfo5yWeYtB2z2iF+YNpiOBt5GZbiRkomr4EPK1vEMLckfLVNSGTVtnMzu9rut0BjS6ZtK0N6Gp3TxlyhQInEIQEussKJrGP9v9CZj9Rkb1UmDfDhUCN4H8/EOnq3BBQcG0ge0iUx8nTw3MHzOKAvwdqIo53bJQHGtzOq2lyrwfx84f/6q3pmYj5s67ve7aSlhKr8hwaM8cPRoYLi1oJSUlX9mwacufMDlfBAFTX7+IncsOGGKep3OaEeQtm2Ac6Ga9XYfspgCqNVA5ZgJREEYHfroqaZfic26D0DxJlbm/NEsXg5Ad9obQ8gDm7N/BAFFHdlo1aNCgfWTjvaUEbdKk2y452hJ4BwxGmCXUmXCk25czfbWYu3RmOineXVgDC3MvJT1YgxTtXZhqYknpfC5V5BUaMYGgBTAqhyzOmDf/XWPp91CAXbdx45ZhnGzbYgoaRpLx/mDgr2AyyCiBroJB2DRhIMh3FVXNnj07vavSlUnHZrNhu490CAS+mnVEGvtkRKwYfwYFaRWKZrq00n2LrS+iyjGXG+WP23j1RGfRz2EAWet2L/k302gP5mhjYdj7q6Wg5RcUTsZIsgJDex8jxicCBoGb/PnuvS/nl5c7TkT6Rmm2WhDZfFg42sy5RnihpQLGnvU+8YSKYBqx6rmwilKY7VuehwHtwqQUgrHNpNFvYXgowUzjerI5hlJm7zOI2Qdjx8e12KpVQEz7BSzj6/GOVZMEA6cM4sEVtGhCB7uBt7b2fdYrbYlOfBS0r59guSsAi/BckaLpsJ0/qWQYrH8LIGSWwphgtuMj53w4bdo6D8Qz4mOQfKrlnprbS0tL7zp0iHqZcQ+cbm/2zJt32Cz+1IBvfwZCBgFIJLCd2Kv4FITpBSpd84kJJ7F8Iqzi4fBrWjBhAOkt44n0O6ChfSMcofzkNJACTStozdhroneRHNuA8Ww0T0NBKyiYem5Qb3kRyN1KRYvMPNTI6RNdRR9hsfbJSPiJfK+srDyK9MVfKhjVQGXe9TAqlBlFScEYO4SR6VHK4I9RSaO6+j1z1S6ks5B4+WKqXD8Zg8iDELjzpNKORuJ0Of07cA/ApgaSSJIOoxV65V4B3rKScxoQiRjvO9Spw7DGfIIKegOL0e/jfZdQoeLlF0nHOH80tFUpEph675414Ml3ENd/H3/m2DqYGgZTacODcQlZZMLCTaas8TlyfG0I2mUiHfW9WGOTUoE7jGj7Dhx+FFL+nch8qbxDiJpB38gZW5HpYH9ctmzZ7mh6CHPawYNHr27da0g3QqgviMaR+Q5t82LBOuxQGexdtGivDE0K5wTVwN79P0LKF8eZ+lPUv99d5PRazoGVeU9d2gyaOTQ/70P4r82HSqs27xfzNZ1+Bx4TY6XdTtDyi4uHcF/IHSEWnVE81hDYQspMeyDWRmGoWH4weF38wSz6kw2bPykinT2ERWrlYRxCejo73CR2eN+Fv1TojjWwZEoGtey4G6qaeu4YzaKydRXqhAoUsxqW0MLRn1CQrYWwKRr++C0kNkFPW7vRKsV2gkY+/jCQ28OsqI/FYRT7G6WxQuxKF16sSgGCJtTIZTDZe3bu3nsfrIr34hsap3yAsP2woGDKM2730u3yVMnFLCgovkbnehmaktXia5CTtmp5ffXC5Kauxm3y5MlnNft4MSM9hxOTmofD6+I9j7v2abWUjmH7d0yDkH1VmVZjD1Fpo7SQoe0wbKw4MxDQzgyk8f2XDBq0K7S+JZPwjHVv0fzcIjQ9YWXvMKUyZYEKJF9QtNliUxxEtAkVGspVAV2/2QrZOI55aOBZUxI1WT/zzDMt4D83v6Dofa7TcyisqfXOIB/pOvc9BLhlYQ3okgIS63o7d+1ZDSGT2Nyrj8em5g/q62veTUriikyczuJbm1uCS5HX3q3jS+v/sdhgfi2sePEFnf9QnZC9SDMb7qdS6z530qTSM4L8cCFk7Canq+hqlAbqHzRM/MNOJh17Zj9kGlvJuFZbX19lZqFszd6sxtVQIyE0HNsLFQLjTqoYfyeVrf7SjKpNcoO6/lszJDO4xlgFzNquRIUskr/XXbMcW35HheZ6kREx3rFVq9DlKv5WDLROid67d++Z+IElhKw1eZ3xSzolIzGY5hcUT4CDnRt5VVooxm+xbGhOdnyq+YLc7yJbQ2NkrX00gwtTL5oMQ4VpLyA2tk90Fs71B4/8A/tun8JoNqJVyI6zAkzDdOTbuq7/j84DG8W+2fwpU6xH1lkNkAP20nEuEm8hlx5fgRVmSNCwS/4byOT3rRCj41D5r6HyxQQ36QG9/dvohaBuKAX8Kvx2JYpTCLmgoGgU13UPitymxcgVHxrLrTdOPabiy5FEYgU5zOiKgWn3WVkW4U94Du3Y/Sa4wrQuN6dC+w7tm6Um3/tCe7PMESPMJ1v3LVriRUZiI0XkZ/R7SNC4H/5kCkE4a1LvjInS+q8C7zCqp666Duk8Hv6WeULQnN1te5ZMvjsbR2w+wORwJdKRmo+15YexlZcOzS6KdGBsi5N/GSePKjDZBzipSuyBNAwu120X+fz0LkarywwRYgDFshW0t9csN6mXNW7GaLooBqv20YxfDqPIme2Bx79aVUfG84+DJN4Y3d8V5nSHnT0ADf0LiRyFUIQFcteu/aNk8U8FvPzCwm/zYHANGmaWUnnhuc1ysp0JdaYLxp6DNLOV0hX+jSbHwQnPeKiAq9ChWqt/MRIUKia2FtZZ+zuyB8AmEIPV8WhhFPEHhh8HtH/TCgsLB8GkeX57sMUXow10y01LLTCSFlVTU3MQ63FSK+/hRDkLpgTtWGWElmsCrAHq1Wnh+pF6MvZK78y0W7zl5T4pfDMkro8wizKEi6Pg2AUvG8YB6A/wxyBkavM9E2boePryAK9DR9I62ETjlTV8DtH5czTY+htH4JkEza/jjA+FAHXuiQRVCYXUiM4+q38l5oMHZYnQWymVR5ZvT8PDcscF3Mf/BCE7Synv2MHTv1/WBJzd0qxEZ4TMueJ+QraGykJrrB24idEHGsvUDhGJADh9c+PHWyzmVhpM/SrBvLw43oBJW+rQ4HXKTBfuDV0Wjpn918omCIvIJeJgFFn8kxGvuLj47CD3CSETqpt0wO/7dt+s9BuO7dmUpjNHxFEASoGbNmzup7uEQUOJnQQylpJ+ZoqWxsW8ViEw0/JqWC02jeyQAufrvUuWSM+ZOtDHCRDrILKkQv+mVasulMU/2fCEJ3yzX1+H3v8ilbJByP5G/bLGLF68+JAKnSUuN294hnRpTJwb0iEI9Y4RH98hIgkAqJA54qhAQ1bTGv8N+GeGcUZAzs+kmhtON4oSBZD/QRi9Y8Sks2FMtymlq/n5oM7OU3fkL4wF8IR/GTud1NbpGH0IK/Job2XlgaSWi/GvSPNDQyT/BTuN8Ddv3iaOLzS16BnRqMCCFMwzxRcWdpXgY2cYoYuJoPRCK1bf1RI1SjEOmD6wv1K6QeLSZYojO92SRCzg+gK0Gs31eyoZxEi2KdNhG90pVmTO5PcNcvaF2fwM59Scr1ImZVzOzjOlUW3zwaDhZgAcD4DbNyQDXLM/l0RNKlrrzhO2X5YpdqxIl0mWZ7fF4zwD50qeRzt2vQg16FqVfGJb1db0NDbKyMNChY8hbsiTmqcbxhkDTdsWjgM425gkOVBsQBloyknjpvkypAkEDdueGNFUJpiJmXsNcyYHhGYhdvynQlQNCAMBDm/9FB1mXlSU5SfD8ezkYGOrq6vVGpIl14jI0oHBiK/Yr8x8MR2CIPbBdlpA2zLnz83zZZghRoa80PmT9OQXP2an9iyGGQdQ+K+hQRnqvkY0cAjdYwRPwSJqgLF3Ze4AiKBQexWLzozJe5uL4wFMAtaClaYOJmxMwZb8LfJlyNDhMPSL1HCgv7SgoRc0rQzDRJMEPHjQL3YCIHm5oGv2lKDFrCp+IVRN6TqNyc4QgUu3LSxF9KWqXOPdK/bQJYKGKSQFyPjHpnyYYpsP+g3bHlRH/i/TRKIjuOIu7Gj6OL859+WokNpJM3VXUOFzMuNCOxnoKiwu6dwyMnnTuMhIE51rlB8x8gqjjVFcojD0NMFMh32NKR/OFNYisc48fZihLQFH0Gnm0hyVOtS364V1Kwrc6Z9I90bZRETF2e1Bsf6RCjFqQA/SI+Jc+Bho8Udzi5HCkCu73hDcCvRaxCUS9arphSMhFx+VU5RhODHZp4k5mr5BPpdwxvz8i9Hy+MnBhK8Zjo6WC1CGPoQV7Ygc9qmOxc862uT/VafVAsNtLEpB3FdnHNJs/EnYE/YZx8YPhQDcb0qtM+kOPsSD0f+a8dLgtP0Xs0hDONz1DeGdBISz4g0qW4kwRAs/pVSQrAFoC7Oww/+7kuiKaOw9JQJx8eCSmwxH2Nra2n0QtHIlfjGQsVvDLXwfzdHMBd+Yxnhni8DVLrn44r+r9BTQ7cfBcW64cULJhYZ2VnM1t3KMaG8lNxcnNzcYRDQ4g8zrFMOIPV104gGFGrTjMvjbzPDFmSVCOMziVeCY833UOyuj1JRmYd4VWPz/hmm8UYRmIWhozDqMT380ojOD4RK/R7pi4y5Ox5qKBnCpWT6i4ai8ZsrKWBcNT31b1wBGtSuck4pmWmPFETt9lbA6Ko5q+lwSlxKaBD5wwDQMDA0m0XJgRltsLG285b7OoNxFkBEJNlG/vqZlhdURdnMbq4ogiPmKxn85X77qdzERE0AInf/B2VOKLF7olK1Eipk40egwCDUp50Gnh8WGZGW6WASMXoyF0i6eY730SPCedrCIj9AuoVtvwnRCewJg9BFqQQhp70zHFZYnplXk3QDO1ylxZjhMyOk1rfeQoF0yZPAryMB2Jcakz5noKp6qRiOHLY5DwzC7CgKdJUfRimVjbIEK/smICyH7wqbZr8b2KiUtBS22f3NL4DdJr5OM9Bp05boi3zlUkft1MxrhD7ncU/0Tu2a7AlrMa2Z4kXDUx8c49OlWb33tGMt70j35veEI/Vgkrdw7f84KLyRoQn2EK8p9VoiGcVyvxK0ZST0QB17Bg5t9+uvwpD3PME0zIKPNbnf162bRpwac/Ycc2jVudxXu57L/GGVuUSk3rLvTxf3eKjQxcW976TPgvBITLxKBw7qNjtbM5SSM6nYvew+3tYy0MfsQ3LJ5DwaL1RC8v0Gw/yPmYNiZ0ojnb9ABD/PUV+fU19e+EKY1fIoF/H370TGo+tHBlab0avj/mQd7OKq+trrG6SqGcx3/dhgm8bTjsol5uBPqm/1Py7rj2AnEEmTGKE5n4fU4Kble9K7GGOZQmE9/bh57CsRg3uGw8dH4GT8Vpa2vf24bjmN7BK8qHSiD58M8zL8vT6oXvaY9hksHRyv+Ctl02O+h18rH0ohyS4PKsfMaxVTGdDoD62Ls5CvyfgUk6aWkCIaLzNbPwjihEU18QPI5LDrm3qZhCsMnn4Uz+zfh8FNXPNYrcbIRLhh0Q79ojEfIkPlXPJ7qFYZZOyWA6MEzHdfCBB4SsnCR2dcGPIy6aQcLx5k+xb0Lz69KqpZCpS83YAOdqaHAPC/8evpkvRuHk/YyxUlWxPzcuRjJ4ums9xA77fFY2WgTNIEIqcdQS5ZDoBlDmP0v4jp3OwuK38N1SnfmT558oRmugItba1yuwhtxqOVzOgU2QUBdADMrGqM4EASZHRcVnMIB7ks/NbrvQBgO8Huq1w3XH5o0acaA5FapVh4XP85vJd78Ji3ONdyeFRfPSCJPfibmg1gy4L+MBEu/M/YrKvPGdJhtUx3DjNNsVOYLMHg0K3jHhonxhMCI8/Yu4y3BJzBKbQJkK77hisF2QgXuI3x/MGoN3Lf/8PfwPLadC29xBlBy3BUsnB3/L04WPZ0sQF/PNrXs4eTnF/NdhQ3oCPNkC4o67RfQm4QaViJLExOvrOGPONv+JfxcP4iJ2xHhO+Tn71Ll6NupdJ1pWTuSxYCILVb7DlSi0Yo2qx7Eicrn2ubJELYb0QQB1I9/2DU2Eapkwv5fELoc/MDj8VeK9/tx0+Kc0MjF+TXHhUwmm5Y4dty7tRjzkQctsU7aSLYz1rFwGtnvwMiv5EuI32myuLgjqdVmozvArykunuK+Pp1ewOiznirGfD8uHmGixTcMAp860iG88QqZ4MXpCGy8Uu5bHQRN0AvrHXx0Zov3HhTug1FmWXe627or6g4ChKmtdQgZCxiLOY+I5oKNCfNgke6g9UTjSX/PbPwn7pWeJY1vhMj5MNwh/QZVjH4dwnIHLRx3vhFaB5g4NGf+6GLQLCe/bzMErACCojxVieI7lJp979L8cUKjsgymlYirhSrQcLEFJZ6bQCzT7MRIXsw3bTkHh8LeIvbGdWJCPY51hkN7qKlFL8bveY5s5jGqXbph01YxCikLqWkaMxuq0NgvRUO/2xRHJiK0oMyvo4D/KaikH0BkNkBwduAp/naDv9gzORA3MMGHEgdQHfINwze0H+hSyQycn42jXf9ClXlTcBupx4y14YgWRsa566hk7dHwd4944iJ5f5C9JQ4Q7RH57aJMCo8GzcbuUk0OwlZeUDAtuQ6/pVf9N4RBaUHdOt/8WxCgQgjUT/F8HCphNYTuWfzdiwF/CuBCBTYdVKx5S8VmYvrihrBhemQcLAVNLGRjBf5u+KzdBvIWYxbdD4rGkYMDRN8Wt+R0v9yduBzh4hAPdKVX1XLA+wR5S/JGNJG48NnKskMwaKNaXroxtlBDdf0BqKe1JG44jQqWghbGhRpZhdX14djGsjMM6+5PaAgDKIDeLRXa10Aam61q6ELH5RLXPrVnlOBX8dqDxOwT0Dz/lSCn7kY+iXw7Xqcl48TxG21BStAEtvDbsWnp38WPtAx/MSfgbSkk+ALh/ie6QFPdNwb7LTHiT7lob03NRoxqT6sWPKjT75NuaCpbu40y2eUQtjdV89Ot8Tn/L2oJvEOL8r4Vzqe0oAkCt3vxDuwtK4Fz5WVYCG0IM+mcJ9uvabgQbmj218WtoqF3KNuyaaExvUMDByjPSWT592S83lnpD6DzwtqmfMDWvCF845bk12dJ4246/bRR2MGyWD43PQGTnwuN6i0Sfm0ISoIWLl59ffUHYhc0s9lEBb0RhifjCQHepmnaL3pl2AbD0e/R8BqReMfGZydG09i3nDD6R0a6bXwyr/xNRtm6C4+QHxZj8Vj95oYOa012QZxeH5U1ToctYA7aUzDZ7BPgF0iAFsMCvE8C/D7BIy5BCyfurVv26vL6mmvhRDcYsHIxiuBPvaIgGOhhF0Nwh3vcNdked/WvjQ5MEfdbk2YbCWH8MpyH6CfS38vStHGWp+9m2LaCTnp0xDx3e3Q6kd/Z2dmYu8of22cjzZIfbsRRUHn5Z5F5kX3HvLsGnVa9LH4rHnbVt+j3q9EoYJc1PIlfZSSEbbMCVfJRGbwgNM1FNsc3kZdtCSYQ2rGEdpncIC5aCAToSpyemQPT6hBwPxsNtQ+evfF3GO17L86S3ANh2Q3d/H07y1xfV7dwl0ouhCsN9+tr8KNkR9G12DVtNBbcY46y8KUrwgm10yFt6VE8Ij99SKMRquvDkUCjd3FVK6fgnbg40dSHDpUNyy17yVtfbWmkCXmvP7/yfvSII8HPtDOEQO6w22y/rKur+tAoT7Fg4mDa/QePlB47/Ej8PpYBB9MKd6oadIbzLRETjQwdJ75dqKn3og5E2+mawJiPGH+CMnD5ZUnjkVCiz938FWo+/DzawXXKmWBsPbZojaRxa1uSLmjKmYmTQHgDN7UEV8IidvUxFpBnW+Hy+mXuOFmmyLpbDYjdHEcCsyFsP8Zf/07LHiOxKXgZOdKfpqkvddQmhODz7X/AIDFdPg/Qghy2K2ja2i8ETY8VNJF5cTH8rt17nsWoNA5qUDl62gUCngonWQ2IE4yP8pvRXEtQMiwz4EChZIRWJ9E/UCavaxvBrPhW5N0FgX8kZvoM0wgbXUUzGj8Ks+vRghYuROp5CtXAgglw3/GNhCPpSExBrsFQMRiN3yZVA4zgTQLjHedvkD3tDZqx5lMpukikytwfQI2sBQ9jlVYYczRtAs18eU0kWUrQImsj9d7zasCT76ADRy+ioB8GOdyLJ67sYpQFYTiIgQ9GM/1LqHBfEkvfQVNX7E9KASvGYceRX9xFd34HfsJyKow6USElaFEVkvpM1YBUDVTlngWHnxcxsl3Vhs9YBZYpZrV9R7wkR9eNYJh6TdXAKVEDYqFdWBQ1mo8R9AD+FtLFV/3IrOz/DzOGVn5v9XT8AAAAAElFTkSuQmCC;" vertex="1" parent="1">
          <mxGeometry x="10" y="150" width="218" height="64" as="geometry" />
        </mxCell>
        <mxCell id="fm1w5TPI21riqKRhGV6--14" value="Script" style="html=1;whiteSpace=wrap;strokeColor=none;fillColor=#0079D6;labelPosition=center;verticalLabelPosition=middle;verticalAlign=top;align=center;fontSize=12;outlineConnect=0;spacingTop=-6;fontColor=#FFFFFF;sketch=0;shape=mxgraph.sitemap.script;" vertex="1" parent="1">
          <mxGeometry x="700" y="290" width="120" height="70" as="geometry" />
        </mxCell>
        <mxCell id="fm1w5TPI21riqKRhGV6--35" style="edgeStyle=orthogonalEdgeStyle;rounded=0;orthogonalLoop=1;jettySize=auto;html=1;" edge="1" parent="1" source="fm1w5TPI21riqKRhGV6--15" target="fm1w5TPI21riqKRhGV6--2">
          <mxGeometry relative="1" as="geometry" />
        </mxCell>
        <mxCell id="fm1w5TPI21riqKRhGV6--36" style="edgeStyle=orthogonalEdgeStyle;rounded=0;orthogonalLoop=1;jettySize=auto;html=1;" edge="1" parent="1" source="fm1w5TPI21riqKRhGV6--15" target="fm1w5TPI21riqKRhGV6--3">
          <mxGeometry relative="1" as="geometry">
            <Array as="points">
              <mxPoint x="310" y="540" />
              <mxPoint x="445" y="540" />
            </Array>
          </mxGeometry>
        </mxCell>
        <mxCell id="fm1w5TPI21riqKRhGV6--37" style="edgeStyle=orthogonalEdgeStyle;rounded=0;orthogonalLoop=1;jettySize=auto;html=1;" edge="1" parent="1" source="fm1w5TPI21riqKRhGV6--15" target="fm1w5TPI21riqKRhGV6--19">
          <mxGeometry relative="1" as="geometry" />
        </mxCell>
        <mxCell id="fm1w5TPI21riqKRhGV6--38" style="edgeStyle=orthogonalEdgeStyle;rounded=0;orthogonalLoop=1;jettySize=auto;html=1;" edge="1" parent="1" source="fm1w5TPI21riqKRhGV6--15" target="fm1w5TPI21riqKRhGV6--14">
          <mxGeometry relative="1" as="geometry" />
        </mxCell>
        <mxCell id="fm1w5TPI21riqKRhGV6--15" value="" style="sketch=0;outlineConnect=0;fontColor=#232F3E;gradientColor=none;fillColor=#8C4FFF;strokeColor=none;dashed=0;verticalLabelPosition=bottom;verticalAlign=top;align=center;html=1;fontSize=12;fontStyle=0;aspect=fixed;pointerEvents=1;shape=mxgraph.aws4.glue_crawlers;" vertex="1" parent="1">
          <mxGeometry x="250" y="390" width="78" height="78" as="geometry" />
        </mxCell>
        <mxCell id="fm1w5TPI21riqKRhGV6--18" value="" style="shape=image;verticalLabelPosition=bottom;labelBackgroundColor=default;verticalAlign=top;aspect=fixed;imageAspect=0;image=https://images.icon-icons.com/2699/PNG/512/python_vertical_logo_icon_168039.png;" vertex="1" parent="1">
          <mxGeometry x="710.8" y="180" width="98.39" height="110" as="geometry" />
        </mxCell>
        <mxCell id="fm1w5TPI21riqKRhGV6--19" value="" style="shape=image;verticalLabelPosition=bottom;labelBackgroundColor=default;verticalAlign=top;aspect=fixed;imageAspect=0;image=https://raw.githubusercontent.com/EvolutionAPI/evolution-api/main/public/images/cover.png;" vertex="1" parent="1">
          <mxGeometry x="600.49" y="500" width="319.01" height="120" as="geometry" />
        </mxCell>
        <mxCell id="fm1w5TPI21riqKRhGV6--28" value="" style="shape=image;verticalLabelPosition=bottom;labelBackgroundColor=default;verticalAlign=top;aspect=fixed;imageAspect=0;image=https://logospng.org/download/docker/docker-1024.png;" vertex="1" parent="1">
          <mxGeometry x="632" y="380" width="256" height="256" as="geometry" />
        </mxCell>
        <mxCell id="fm1w5TPI21riqKRhGV6--34" style="edgeStyle=orthogonalEdgeStyle;rounded=0;orthogonalLoop=1;jettySize=auto;html=1;" edge="1" parent="1" source="fm1w5TPI21riqKRhGV6--29" target="fm1w5TPI21riqKRhGV6--15">
          <mxGeometry relative="1" as="geometry">
            <Array as="points">
              <mxPoint x="440" y="410" />
            </Array>
          </mxGeometry>
        </mxCell>
        <mxCell id="fm1w5TPI21riqKRhGV6--29" value="" style="shape=image;verticalLabelPosition=bottom;labelBackgroundColor=default;verticalAlign=top;aspect=fixed;imageAspect=0;image=data:image/png,iVBORw0KGgoAAAANSUhEUgAAANoAAABACAYAAAB84Gn+AAAAAXNSR0IArs4c6QAAG1NJREFUeAHtXQt8VMXVP3N3s0kID6UqlfpEIg3al61+olV5SAJY8EV2QxIizwR/LVZqtV8t+kVra2t9aykJT0Mem11UHhZMqI9WpX7qr1U/eSjQYlsRUN6PJPu48/1nw4bN5t67M7ubkMDOj3DvPXPOmcfOmTlzZs4Mo1RI1UBPrYEFuRcSaTmk60OI02BidBqK0gfvWcR4ExE7jPeDxNh2xH2MuM00c9gmYuV6VxeZdXWCqfRSNRB3DSya0If8TTdCaHIhRCOI83OUeTHaT5z9GTxeJXvGcpq+aocyjzgIUoIWR6WlSLq4BhaMGY5RayZSvQnC1St5qTMxsr1CNm0JDb7SSyPKA8nj3Z5TStDa10fqqzvVQGXuD0jnv0CWruz0bDH2TyL+WzrXvpTGrW1JdnqdImj5c+Zk2nfuyfbrgSGMtIGc630YY1nIvI8xfogT7SNm20rpto+9S5fuTHahZPi5XJNzgly/CZXb2wxf09Dj6Xydx1P7FzOcMNzlKrk4yAPFmDNkhmEdn/oB5tDc3urqrR3j2kOczsl5pOnf13WutY85/sWYticr07546dKl+49DT4K3xWOHkj8wD/Or67q8NIxthWo5m2Y1vJzMtJMiaJxz5iwsuZbp+jgIkdCdL8PTJpNRxmgHMvEaZ/SnrAzHiq5oNEVFRX1b/PQphExMni0DOghdI3ZZfX31B2aIovz5ruLPwO9sM5w2OGOfXpqTPai83HxC7nQWjoBO82objdULY2uX19eMs0LpMXG8XKMF6x9A+/kZhCztxOabLSfWbwaVeQ/Ek498j8fmdTqDYdqEBC1/+vT+/FDTnbDqlKByzg8zTeDZwoitJpvtKW9d1ZsJ8LEkdbmKrgxy/ldLpIhIjGy3e9w18yNA7V7zS0q+xpsD/2kHtPjolWE/o6qqao8ZCoT2bmgBj5jFR8LRERz01tf0i4T1yPfqsX3pcKAOee9GnQb7mNId42nqS1tk6hSdp/bRpi2zNBaaR/rQ/56GTnql6KRN1RIrxkI1dBYU/owfat4GvPuSJGQiyXROfCIPBt7IdxatzC8qGmqVj3jjdM2m2sFYjs6OYFCJn9+foYQfo5yWeYtB2z2iF+YNpiOBt5GZbiRkomr4EPK1vEMLckfLVNSGTVtnMzu9rut0BjS6ZtK0N6Gp3TxlyhQInEIQEussKJrGP9v9CZj9Rkb1UmDfDhUCN4H8/EOnq3BBQcG0ge0iUx8nTw3MHzOKAvwdqIo53bJQHGtzOq2lyrwfx84f/6q3pmYj5s67ve7aSlhKr8hwaM8cPRoYLi1oJSUlX9mwacufMDlfBAFTX7+IncsOGGKep3OaEeQtm2Ac6Ga9XYfspgCqNVA5ZgJREEYHfroqaZfic26D0DxJlbm/NEsXg5Ad9obQ8gDm7N/BAFFHdlo1aNCgfWTjvaUEbdKk2y452hJ4BwxGmCXUmXCk25czfbWYu3RmOineXVgDC3MvJT1YgxTtXZhqYknpfC5V5BUaMYGgBTAqhyzOmDf/XWPp91CAXbdx45ZhnGzbYgoaRpLx/mDgr2AyyCiBroJB2DRhIMh3FVXNnj07vavSlUnHZrNhu490CAS+mnVEGvtkRKwYfwYFaRWKZrq00n2LrS+iyjGXG+WP23j1RGfRz2EAWet2L/k302gP5mhjYdj7q6Wg5RcUTsZIsgJDex8jxicCBoGb/PnuvS/nl5c7TkT6Rmm2WhDZfFg42sy5RnihpQLGnvU+8YSKYBqx6rmwilKY7VuehwHtwqQUgrHNpNFvYXgowUzjerI5hlJm7zOI2Qdjx8e12KpVQEz7BSzj6/GOVZMEA6cM4sEVtGhCB7uBt7b2fdYrbYlOfBS0r59guSsAi/BckaLpsJ0/qWQYrH8LIGSWwphgtuMj53w4bdo6D8Qz4mOQfKrlnprbS0tL7zp0iHqZcQ+cbm/2zJt32Cz+1IBvfwZCBgFIJLCd2Kv4FITpBSpd84kJJ7F8Iqzi4fBrWjBhAOkt44n0O6ChfSMcofzkNJACTStozdhroneRHNuA8Ww0T0NBKyiYem5Qb3kRyN1KRYvMPNTI6RNdRR9hsfbJSPiJfK+srDyK9MVfKhjVQGXe9TAqlBlFScEYO4SR6VHK4I9RSaO6+j1z1S6ks5B4+WKqXD8Zg8iDELjzpNKORuJ0Of07cA/ApgaSSJIOoxV65V4B3rKScxoQiRjvO9Spw7DGfIIKegOL0e/jfZdQoeLlF0nHOH80tFUpEph675414Ml3ENd/H3/m2DqYGgZTacODcQlZZMLCTaas8TlyfG0I2mUiHfW9WGOTUoE7jGj7Dhx+FFL+nch8qbxDiJpB38gZW5HpYH9ctmzZ7mh6CHPawYNHr27da0g3QqgviMaR+Q5t82LBOuxQGexdtGivDE0K5wTVwN79P0LKF8eZ+lPUv99d5PRazoGVeU9d2gyaOTQ/70P4r82HSqs27xfzNZ1+Bx4TY6XdTtDyi4uHcF/IHSEWnVE81hDYQspMeyDWRmGoWH4weF38wSz6kw2bPykinT2ERWrlYRxCejo73CR2eN+Fv1TojjWwZEoGtey4G6qaeu4YzaKydRXqhAoUsxqW0MLRn1CQrYWwKRr++C0kNkFPW7vRKsV2gkY+/jCQ28OsqI/FYRT7G6WxQuxKF16sSgGCJtTIZTDZe3bu3nsfrIr34hsap3yAsP2woGDKM2730u3yVMnFLCgovkbnehmaktXia5CTtmp5ffXC5Kauxm3y5MlnNft4MSM9hxOTmofD6+I9j7v2abWUjmH7d0yDkH1VmVZjD1Fpo7SQoe0wbKw4MxDQzgyk8f2XDBq0K7S+JZPwjHVv0fzcIjQ9YWXvMKUyZYEKJF9QtNliUxxEtAkVGspVAV2/2QrZOI55aOBZUxI1WT/zzDMt4D83v6Dofa7TcyisqfXOIB/pOvc9BLhlYQ3okgIS63o7d+1ZDSGT2Nyrj8em5g/q62veTUriikyczuJbm1uCS5HX3q3jS+v/sdhgfi2sePEFnf9QnZC9SDMb7qdS6z530qTSM4L8cCFk7Canq+hqlAbqHzRM/MNOJh17Zj9kGlvJuFZbX19lZqFszd6sxtVQIyE0HNsLFQLjTqoYfyeVrf7SjKpNcoO6/lszJDO4xlgFzNquRIUskr/XXbMcW35HheZ6kREx3rFVq9DlKv5WDLROid67d++Z+IElhKw1eZ3xSzolIzGY5hcUT4CDnRt5VVooxm+xbGhOdnyq+YLc7yJbQ2NkrX00gwtTL5oMQ4VpLyA2tk90Fs71B4/8A/tun8JoNqJVyI6zAkzDdOTbuq7/j84DG8W+2fwpU6xH1lkNkAP20nEuEm8hlx5fgRVmSNCwS/4byOT3rRCj41D5r6HyxQQ36QG9/dvohaBuKAX8Kvx2JYpTCLmgoGgU13UPitymxcgVHxrLrTdOPabiy5FEYgU5zOiKgWn3WVkW4U94Du3Y/Sa4wrQuN6dC+w7tm6Um3/tCe7PMESPMJ1v3LVriRUZiI0XkZ/R7SNC4H/5kCkE4a1LvjInS+q8C7zCqp666Duk8Hv6WeULQnN1te5ZMvjsbR2w+wORwJdKRmo+15YexlZcOzS6KdGBsi5N/GSePKjDZBzipSuyBNAwu120X+fz0LkarywwRYgDFshW0t9csN6mXNW7GaLooBqv20YxfDqPIme2Bx79aVUfG84+DJN4Y3d8V5nSHnT0ADf0LiRyFUIQFcteu/aNk8U8FvPzCwm/zYHANGmaWUnnhuc1ysp0JdaYLxp6DNLOV0hX+jSbHwQnPeKiAq9ChWqt/MRIUKia2FtZZ+zuyB8AmEIPV8WhhFPEHhh8HtH/TCgsLB8GkeX57sMUXow10y01LLTCSFlVTU3MQ63FSK+/hRDkLpgTtWGWElmsCrAHq1Wnh+pF6MvZK78y0W7zl5T4pfDMkro8wizKEi6Pg2AUvG8YB6A/wxyBkavM9E2boePryAK9DR9I62ETjlTV8DtH5czTY+htH4JkEza/jjA+FAHXuiQRVCYXUiM4+q38l5oMHZYnQWymVR5ZvT8PDcscF3Mf/BCE7Synv2MHTv1/WBJzd0qxEZ4TMueJ+QraGykJrrB24idEHGsvUDhGJADh9c+PHWyzmVhpM/SrBvLw43oBJW+rQ4HXKTBfuDV0Wjpn918omCIvIJeJgFFn8kxGvuLj47CD3CSETqpt0wO/7dt+s9BuO7dmUpjNHxFEASoGbNmzup7uEQUOJnQQylpJ+ZoqWxsW8ViEw0/JqWC02jeyQAufrvUuWSM+ZOtDHCRDrILKkQv+mVasulMU/2fCEJ3yzX1+H3v8ilbJByP5G/bLGLF68+JAKnSUuN294hnRpTJwb0iEI9Y4RH98hIgkAqJA54qhAQ1bTGv8N+GeGcUZAzs+kmhtON4oSBZD/QRi9Y8Sks2FMtymlq/n5oM7OU3fkL4wF8IR/GTud1NbpGH0IK/Job2XlgaSWi/GvSPNDQyT/BTuN8Ddv3iaOLzS16BnRqMCCFMwzxRcWdpXgY2cYoYuJoPRCK1bf1RI1SjEOmD6wv1K6QeLSZYojO92SRCzg+gK0Gs31eyoZxEi2KdNhG90pVmTO5PcNcvaF2fwM59Scr1ImZVzOzjOlUW3zwaDhZgAcD4DbNyQDXLM/l0RNKlrrzhO2X5YpdqxIl0mWZ7fF4zwD50qeRzt2vQg16FqVfGJb1db0NDbKyMNChY8hbsiTmqcbxhkDTdsWjgM425gkOVBsQBloyknjpvkypAkEDdueGNFUJpiJmXsNcyYHhGYhdvynQlQNCAMBDm/9FB1mXlSU5SfD8ezkYGOrq6vVGpIl14jI0oHBiK/Yr8x8MR2CIPbBdlpA2zLnz83zZZghRoa80PmT9OQXP2an9iyGGQdQ+K+hQRnqvkY0cAjdYwRPwSJqgLF3Ze4AiKBQexWLzozJe5uL4wFMAtaClaYOJmxMwZb8LfJlyNDhMPSL1HCgv7SgoRc0rQzDRJMEPHjQL3YCIHm5oGv2lKDFrCp+IVRN6TqNyc4QgUu3LSxF9KWqXOPdK/bQJYKGKSQFyPjHpnyYYpsP+g3bHlRH/i/TRKIjuOIu7Gj6OL859+WokNpJM3VXUOFzMuNCOxnoKiwu6dwyMnnTuMhIE51rlB8x8gqjjVFcojD0NMFMh32NKR/OFNYisc48fZihLQFH0Gnm0hyVOtS364V1Kwrc6Z9I90bZRETF2e1Bsf6RCjFqQA/SI+Jc+Bho8Udzi5HCkCu73hDcCvRaxCUS9arphSMhFx+VU5RhODHZp4k5mr5BPpdwxvz8i9Hy+MnBhK8Zjo6WC1CGPoQV7Ygc9qmOxc862uT/VafVAsNtLEpB3FdnHNJs/EnYE/YZx8YPhQDcb0qtM+kOPsSD0f+a8dLgtP0Xs0hDONz1DeGdBISz4g0qW4kwRAs/pVSQrAFoC7Oww/+7kuiKaOw9JQJx8eCSmwxH2Nra2n0QtHIlfjGQsVvDLXwfzdHMBd+Yxnhni8DVLrn44r+r9BTQ7cfBcW64cULJhYZ2VnM1t3KMaG8lNxcnNzcYRDQ4g8zrFMOIPV104gGFGrTjMvjbzPDFmSVCOMziVeCY833UOyuj1JRmYd4VWPz/hmm8UYRmIWhozDqMT380ojOD4RK/R7pi4y5Ox5qKBnCpWT6i4ai8ZsrKWBcNT31b1wBGtSuck4pmWmPFETt9lbA6Ko5q+lwSlxKaBD5wwDQMDA0m0XJgRltsLG285b7OoNxFkBEJNlG/vqZlhdURdnMbq4ogiPmKxn85X77qdzERE0AInf/B2VOKLF7olK1Eipk40egwCDUp50Gnh8WGZGW6WASMXoyF0i6eY730SPCedrCIj9AuoVtvwnRCewJg9BFqQQhp70zHFZYnplXk3QDO1ylxZjhMyOk1rfeQoF0yZPAryMB2Jcakz5noKp6qRiOHLY5DwzC7CgKdJUfRimVjbIEK/smICyH7wqbZr8b2KiUtBS22f3NL4DdJr5OM9Bp05boi3zlUkft1MxrhD7ncU/0Tu2a7AlrMa2Z4kXDUx8c49OlWb33tGMt70j35veEI/Vgkrdw7f84KLyRoQn2EK8p9VoiGcVyvxK0ZST0QB17Bg5t9+uvwpD3PME0zIKPNbnf162bRpwac/Ycc2jVudxXu57L/GGVuUSk3rLvTxf3eKjQxcW976TPgvBITLxKBw7qNjtbM5SSM6nYvew+3tYy0MfsQ3LJ5DwaL1RC8v0Gw/yPmYNiZ0ojnb9ABD/PUV+fU19e+EKY1fIoF/H370TGo+tHBlab0avj/mQd7OKq+trrG6SqGcx3/dhgm8bTjsol5uBPqm/1Py7rj2AnEEmTGKE5n4fU4Kble9K7GGOZQmE9/bh57CsRg3uGw8dH4GT8Vpa2vf24bjmN7BK8qHSiD58M8zL8vT6oXvaY9hksHRyv+Ctl02O+h18rH0ohyS4PKsfMaxVTGdDoD62Ls5CvyfgUk6aWkCIaLzNbPwjihEU18QPI5LDrm3qZhCsMnn4Uz+zfh8FNXPNYrcbIRLhh0Q79ojEfIkPlXPJ7qFYZZOyWA6MEzHdfCBB4SsnCR2dcGPIy6aQcLx5k+xb0Lz69KqpZCpS83YAOdqaHAPC/8evpkvRuHk/YyxUlWxPzcuRjJ4ums9xA77fFY2WgTNIEIqcdQS5ZDoBlDmP0v4jp3OwuK38N1SnfmT558oRmugItba1yuwhtxqOVzOgU2QUBdADMrGqM4EASZHRcVnMIB7ks/NbrvQBgO8Huq1w3XH5o0acaA5FapVh4XP85vJd78Ji3ONdyeFRfPSCJPfibmg1gy4L+MBEu/M/YrKvPGdJhtUx3DjNNsVOYLMHg0K3jHhonxhMCI8/Yu4y3BJzBKbQJkK77hisF2QgXuI3x/MGoN3Lf/8PfwPLadC29xBlBy3BUsnB3/L04WPZ0sQF/PNrXs4eTnF/NdhQ3oCPNkC4o67RfQm4QaViJLExOvrOGPONv+JfxcP4iJ2xHhO+Tn71Ll6NupdJ1pWTuSxYCILVb7DlSi0Yo2qx7Eicrn2ubJELYb0QQB1I9/2DU2Eapkwv5fELoc/MDj8VeK9/tx0+Kc0MjF+TXHhUwmm5Y4dty7tRjzkQctsU7aSLYz1rFwGtnvwMiv5EuI32myuLgjqdVmozvArykunuK+Pp1ewOiznirGfD8uHmGixTcMAp860iG88QqZ4MXpCGy8Uu5bHQRN0AvrHXx0Zov3HhTug1FmWXe627or6g4ChKmtdQgZCxiLOY+I5oKNCfNgke6g9UTjSX/PbPwn7pWeJY1vhMj5MNwh/QZVjH4dwnIHLRx3vhFaB5g4NGf+6GLQLCe/bzMErACCojxVieI7lJp979L8cUKjsgymlYirhSrQcLEFJZ6bQCzT7MRIXsw3bTkHh8LeIvbGdWJCPY51hkN7qKlFL8bveY5s5jGqXbph01YxCikLqWkaMxuq0NgvRUO/2xRHJiK0oMyvo4D/KaikH0BkNkBwduAp/naDv9gzORA3MMGHEgdQHfINwze0H+hSyQycn42jXf9ClXlTcBupx4y14YgWRsa566hk7dHwd4944iJ5f5C9JQ4Q7RH57aJMCo8GzcbuUk0OwlZeUDAtuQ6/pVf9N4RBaUHdOt/8WxCgQgjUT/F8HCphNYTuWfzdiwF/CuBCBTYdVKx5S8VmYvrihrBhemQcLAVNLGRjBf5u+KzdBvIWYxbdD4rGkYMDRN8Wt+R0v9yduBzh4hAPdKVX1XLA+wR5S/JGNJG48NnKskMwaKNaXroxtlBDdf0BqKe1JG44jQqWghbGhRpZhdX14djGsjMM6+5PaAgDKIDeLRXa10Aam61q6ELH5RLXPrVnlOBX8dqDxOwT0Dz/lSCn7kY+iXw7Xqcl48TxG21BStAEtvDbsWnp38WPtAx/MSfgbSkk+ALh/ie6QFPdNwb7LTHiT7lob03NRoxqT6sWPKjT75NuaCpbu40y2eUQtjdV89Ot8Tn/L2oJvEOL8r4Vzqe0oAkCt3vxDuwtK4Fz5WVYCG0IM+mcJ9uvabgQbmj218WtoqF3KNuyaaExvUMDByjPSWT592S83lnpD6DzwtqmfMDWvCF845bk12dJ4246/bRR2MGyWD43PQGTnwuN6i0Sfm0ISoIWLl59ffUHYhc0s9lEBb0RhifjCQHepmnaL3pl2AbD0e/R8BqReMfGZydG09i3nDD6R0a6bXwyr/xNRtm6C4+QHxZj8Vj95oYOa012QZxeH5U1ToctYA7aUzDZ7BPgF0iAFsMCvE8C/D7BIy5BCyfurVv26vL6mmvhRDcYsHIxiuBPvaIgGOhhF0Nwh3vcNdked/WvjQ5MEfdbk2YbCWH8MpyH6CfS38vStHGWp+9m2LaCTnp0xDx3e3Q6kd/Z2dmYu8of22cjzZIfbsRRUHn5Z5F5kX3HvLsGnVa9LH4rHnbVt+j3q9EoYJc1PIlfZSSEbbMCVfJRGbwgNM1FNsc3kZdtCSYQ2rGEdpncIC5aCAToSpyemQPT6hBwPxsNtQ+evfF3GO17L86S3ANh2Q3d/H07y1xfV7dwl0ouhCsN9+tr8KNkR9G12DVtNBbcY46y8KUrwgm10yFt6VE8Ij99SKMRquvDkUCjd3FVK6fgnbg40dSHDpUNyy17yVtfbWmkCXmvP7/yfvSII8HPtDOEQO6w22y/rKur+tAoT7Fg4mDa/QePlB47/Ej8PpYBB9MKd6oadIbzLRETjQwdJ75dqKn3og5E2+mawJiPGH+CMnD5ZUnjkVCiz938FWo+/DzawXXKmWBsPbZojaRxa1uSLmjKmYmTQHgDN7UEV8IidvUxFpBnW+Hy+mXuOFmmyLpbDYjdHEcCsyFsP8Zf/07LHiOxKXgZOdKfpqkvddQmhODz7X/AIDFdPg/Qghy2K2ja2i8ETY8VNJF5cTH8rt17nsWoNA5qUDl62gUCngonWQ2IE4yP8pvRXEtQMiwz4EChZIRWJ9E/UCavaxvBrPhW5N0FgX8kZvoM0wgbXUUzGj8Ks+vRghYuROp5CtXAgglw3/GNhCPpSExBrsFQMRiN3yZVA4zgTQLjHedvkD3tDZqx5lMpukikytwfQI2sBQ9jlVYYczRtAs18eU0kWUrQImsj9d7zasCT76ADRy+ioB8GOdyLJ67sYpQFYTiIgQ9GM/1LqHBfEkvfQVNX7E9KASvGYceRX9xFd34HfsJyKow6USElaFEVkvpM1YBUDVTlngWHnxcxsl3Vhs9YBZYpZrV9R7wkR9eNYJh6TdXAKVEDYqFdWBQ1mo8R9AD+FtLFV/3IrOz/DzOGVn5v9XT8AAAAAElFTkSuQmCC;" vertex="1" parent="1">
          <mxGeometry x="340" y="140" width="218" height="64" as="geometry" />
        </mxCell>
        <mxCell id="fm1w5TPI21riqKRhGV6--30" value="" style="shape=flexArrow;endArrow=classic;html=1;rounded=0;entryX=0;entryY=0.5;entryDx=0;entryDy=0;exitX=1;exitY=0.5;exitDx=0;exitDy=0;exitPerimeter=0;" edge="1" parent="1" source="fm1w5TPI21riqKRhGV6--14" target="fm1w5TPI21riqKRhGV6--1">
          <mxGeometry width="50" height="50" relative="1" as="geometry">
            <mxPoint x="840" y="310" as="sourcePoint" />
            <mxPoint x="980" y="330" as="targetPoint" />
          </mxGeometry>
        </mxCell>
        <mxCell id="fm1w5TPI21riqKRhGV6--39" value="&lt;h1 style=&quot;margin-top: 0px;&quot;&gt;Dowload Script Log&lt;/h1&gt;&lt;p&gt;Baixa automaticamente o script log da task com error&lt;/p&gt;" style="text;html=1;whiteSpace=wrap;overflow=hidden;rounded=0;" vertex="1" parent="1">
          <mxGeometry x="60" y="720" width="240" height="90" as="geometry" />
        </mxCell>
        <mxCell id="fm1w5TPI21riqKRhGV6--40" value="&lt;h1 style=&quot;margin-top: 0px;&quot;&gt;&lt;span style=&quot;background-color: transparent; color: light-dark(rgb(0, 0, 0), rgb(255, 255, 255));&quot;&gt;Task Status&amp;nbsp;&lt;/span&gt;&lt;/h1&gt;&lt;h1 style=&quot;margin-top: 0px;&quot;&gt;&lt;span style=&quot;background-color: transparent; color: light-dark(rgb(0, 0, 0), rgb(255, 255, 255)); font-size: 12px; font-weight: normal;&quot;&gt;Baixa automaticamente o momento atual das taks&amp;nbsp;&lt;/span&gt;&lt;/h1&gt;" style="text;html=1;whiteSpace=wrap;overflow=hidden;rounded=0;" vertex="1" parent="1">
          <mxGeometry x="380" y="730" width="275" height="90" as="geometry" />
        </mxCell>
        <mxCell id="fm1w5TPI21riqKRhGV6--41" value="&lt;b&gt;QMC HUB&lt;/b&gt;" style="text;html=1;align=center;verticalAlign=middle;whiteSpace=wrap;rounded=0;" vertex="1" parent="1">
          <mxGeometry x="40" y="110" width="150" height="30" as="geometry" />
        </mxCell>
        <mxCell id="fm1w5TPI21riqKRhGV6--43" value="QMC QAP" style="text;html=1;align=center;verticalAlign=middle;whiteSpace=wrap;rounded=0;fontStyle=1" vertex="1" parent="1">
          <mxGeometry x="360" y="100" width="150" height="30" as="geometry" />
        </mxCell>
        <mxCell id="fm1w5TPI21riqKRhGV6--44" value="&lt;h1 style=&quot;margin-top: 0px;&quot;&gt;&lt;span style=&quot;background-color: transparent; color: light-dark(rgb(0, 0, 0), rgb(255, 255, 255)); font-weight: normal;&quot;&gt;WebScrap&lt;/span&gt;&lt;/h1&gt;&lt;h1 style=&quot;margin-top: 0px;&quot;&gt;&lt;br&gt;&lt;/h1&gt;" style="text;html=1;whiteSpace=wrap;overflow=hidden;rounded=0;" vertex="1" parent="1">
          <mxGeometry x="230" y="348" width="120" height="52" as="geometry" />
        </mxCell>
        <mxCell id="fm1w5TPI21riqKRhGV6--45" value="" style="shape=image;html=1;verticalAlign=top;verticalLabelPosition=bottom;labelBackgroundColor=#ffffff;imageAspect=0;aspect=fixed;image=https://cdn3.iconfinder.com/data/icons/document-icons-2/30/647704-pdf-128.png" vertex="1" parent="1">
          <mxGeometry x="880" y="279" width="69" height="69" as="geometry" />
        </mxCell>
        <mxCell id="fm1w5TPI21riqKRhGV6--46" value="log.pdf" style="text;html=1;align=center;verticalAlign=middle;whiteSpace=wrap;rounded=0;" vertex="1" parent="1">
          <mxGeometry x="884.5" y="249" width="60" height="30" as="geometry" />
        </mxCell>
      </root>
    </mxGraphModel>
  </diagram>
</mxfile>
